<svg xmlns="http://www.w3.org/2000/svg" xmlns:xlink="http://www.w3.org/1999/xlink">
<defs>

<symbol id="sun" viewBox="0 0 24 24"><g id="weather"><g id="sun"><path d="M12,4.7A.75.75,0,0,1,11.25,4V2.77a.75.75,0,1,1,1.5,0V4A.75.75,0,0,1,12,4.7Z"/><path d="M12,22a.76.76,0,0,1-.75-.75V20.05a.75.75,0,1,1,1.5,0v1.18A.76.76,0,0,1,12,22Z"/><path d="M6.31,7.06a.74.74,0,0,1-.53-.22L4.94,6A.76.76,0,1,1,6,4.94l.83.84a.75.75,0,0,1,0,1.06A.74.74,0,0,1,6.31,7.06Z"/><path d="M18.52,19.28a.79.79,0,0,1-.53-.22l-.83-.84a.75.75,0,1,1,1.06-1.06l.84.83a.77.77,0,0,1,0,1.07A.79.79,0,0,1,18.52,19.28Z"/><path d="M4,12.75H2.77a.75.75,0,1,1,0-1.5H4a.75.75,0,0,1,0,1.5Z"/><path d="M21.23,12.75H20.05a.75.75,0,1,1,0-1.5h1.18a.75.75,0,1,1,0,1.5Z"/><path d="M5.48,19.28a.79.79,0,0,1-.54-.22.77.77,0,0,1,0-1.07l.84-.83a.75.75,0,1,1,1.06,1.06L6,19.06A.79.79,0,0,1,5.48,19.28Z"/><path d="M17.69,7.06a.74.74,0,0,1-.53-.22.75.75,0,0,1,0-1.06L18,4.94A.76.76,0,1,1,19.06,6l-.84.83A.74.74,0,0,1,17.69,7.06Z"/><g style="opacity:0.3"><circle cx="12" cy="12" r="5.62"/></g></g></g></symbol>

<symbol id="moon" viewBox="0 0 24 24"><g><path d="M11.34,10.93a7.62,7.62,0,0,1-.22-6.18A1.29,1.29,0,0,0,9.43,3.09a9.55,9.55,0,0,0-3,1.84A9.26,9.26,0,0,0,9.1,20.24a10.68,10.68,0,0,1-.32-2.56A9.93,9.93,0,0,1,11.34,10.93Z"/><g style="opacity:0.3"><path d="M18.31,19.16a9,9,0,0,0,1.92-1.94,1.3,1.3,0,0,0-1.14-2.07,7.46,7.46,0,0,1-7.75-4.22,9.93,9.93,0,0,0-2.56,6.75,10.68,10.68,0,0,0,.32,2.56A9.25,9.25,0,0,0,18.31,19.16Z"/></g></g></symbol>

<symbol id="night-day" viewBox="0 0 24 24"><g><g><path d="M11.56,12.07A5,5,0,0,0,15,16.82a5.68,5.68,0,0,0,.15-9.55A5,5,0,0,0,11.56,12.07Z"/><g style="opacity:0.3"><path d="M10.19,12.07a6.36,6.36,0,0,1,3.27-5.56A5.42,5.42,0,0,0,12,6.31a5.69,5.69,0,0,0,0,11.38,5.58,5.58,0,0,0,1.3-.16A6.36,6.36,0,0,1,10.19,12.07Z"/></g><path d="M12,4.7A.75.75,0,0,1,11.25,4V2.77a.75.75,0,1,1,1.5,0V4A.75.75,0,0,1,12,4.7Z"/><path d="M12,22a.76.76,0,0,1-.75-.75V20.05a.75.75,0,1,1,1.5,0v1.18A.76.76,0,0,1,12,22Z"/><path d="M6.31,7.06a.74.74,0,0,1-.53-.22L4.94,6A.76.76,0,1,1,6,4.94l.83.84a.75.75,0,0,1,0,1.06A.74.74,0,0,1,6.31,7.06Z"/><path d="M18.52,19.28a.79.79,0,0,1-.53-.22l-.83-.84a.75.75,0,1,1,1.06-1.06l.84.83a.77.77,0,0,1,0,1.07A.79.79,0,0,1,18.52,19.28Z"/><path d="M4,12.75H2.77a.75.75,0,1,1,0-1.5H4a.75.75,0,0,1,0,1.5Z"/><path d="M21.23,12.75H20.05a.75.75,0,1,1,0-1.5h1.18a.75.75,0,1,1,0,1.5Z"/><path d="M5.48,19.28a.79.79,0,0,1-.54-.22.77.77,0,0,1,0-1.07l.84-.83a.75.75,0,1,1,1.06,1.06L6,19.06A.79.79,0,0,1,5.48,19.28Z"/><path d="M17.69,7.06a.74.74,0,0,1-.53-.22.75.75,0,0,1,0-1.06L18,4.94A.76.76,0,1,1,19.06,6l-.84.83A.74.74,0,0,1,17.69,7.06Z"/></g></g></symbol>

<symbol id="shield-slash" viewBox="0 0 24 24"><g><g><path d="M3.32,21.59a.73.73,0,0,1-.53-.22.75.75,0,0,1,0-1.06L20.24,2.93A.75.75,0,1,1,21.3,4L3.85,21.37A.74.74,0,0,1,3.32,21.59Z"/><path style="opacity:0.3" d="M7.74,19.45,9.9,21.21a3.39,3.39,0,0,0,4.29,0l4.59-3.75A3.39,3.39,0,0,0,20,14.83V7.49a2.11,2.11,0,0,0,0-.25Z"/><path style="opacity:0.3" d="M6.63,18.54,19.52,5.71a3.38,3.38,0,0,0-1.47-1.3l-4.59-2.1a3.41,3.41,0,0,0-2.83,0L6.05,4.41a3.39,3.39,0,0,0-2,3.08v7.34a3.39,3.39,0,0,0,1.25,2.63Z"/></g></g></symbol>

<symbol id="shield-tick" viewBox="0 0 24 24"><g id="security"><g><path style="opacity:0.3"  d="M9.85,21.23,5.26,17.48A3.39,3.39,0,0,1,4,14.85V7.5A3.39,3.39,0,0,1,6,4.41l4.6-2.1a3.39,3.39,0,0,1,2.82,0L18,4.41A3.39,3.39,0,0,1,20,7.5v7.35a3.39,3.39,0,0,1-1.25,2.63l-4.59,3.75A3.38,3.38,0,0,1,9.85,21.23Z"/><path d="M10.68,14.79a.76.76,0,0,1-.54-.23L8.61,13a.75.75,0,1,1,1.07-1.05l1,1,3.65-3.55a.75.75,0,1,1,1,1.07L11.2,14.57A.7.7,0,0,1,10.68,14.79Z"/></g></g></symbol>

<symbol id="abstract-48" viewBox="0 0 24 24"><g id="abstract"><g><circle style="opacity:0.3" cx="12" cy="12" r="10"/><path d="M12,19.73A7.74,7.74,0,0,1,4.27,12a.75.75,0,0,1,1.5,0A6.23,6.23,0,1,0,12,5.77a.75.75,0,0,1,0-1.5,7.73,7.73,0,0,1,0,15.46Z"/><path d="M12,16.84a.75.75,0,0,1,0-1.5,3.34,3.34,0,0,0,0-6.68.75.75,0,0,1,0-1.5,4.84,4.84,0,0,1,0,9.68Z"/></g></g></symbol>

<symbol id="check" viewBox="0 0 24 24"><g><g><path d="M10.6,17a1,1,0,0,1-.71-.29L5.3,12.08a1,1,0,0,1,1.42-1.42l3.88,3.89,6.67-6.68a1,1,0,0,1,1.42,1.42l-7.38,7.38A1.05,1.05,0,0,1,10.6,17Z"/></g></g></symbol>

<symbol id="burger-menu-4" viewBox="0 0 24 24"><g><g><path d="M19.86,14.23H4.26a.75.75,0,0,1,0-1.5h15.6a.75.75,0,0,1,0,1.5Z"/><path d="M19.86,21H4.26a.75.75,0,1,1,0-1.5h15.6a.75.75,0,0,1,0,1.5Z"/><path d="M19.86,7.42H4.26a.75.75,0,0,1,0-1.5h15.6a.75.75,0,0,1,0,1.5Z"/><path d="M17.34,9.94a.73.73,0,0,1-.53-.22.75.75,0,0,1,0-1.06l2-2-2-2a.75.75,0,0,1,1.06-1.06l2.52,2.52a.75.75,0,0,1,0,1.06L17.87,9.72A.74.74,0,0,1,17.34,9.94Z"/></g></g></symbol>

<symbol id="setting-4" viewBox="0 0 24 24"><g><path d="M10.13,3A3.93,3.93,0,0,0,6.28,6.17H2.78A.75.75,0,0,0,2,6.91a.76.76,0,0,0,.75.76h3.5A3.92,3.92,0,1,0,10.13,3Z"/><path d="M15.64,7.68a.75.75,0,0,1-.75-.75.73.73,0,0,1,.74-.75h5.59a.75.75,0,0,1,.75.74.76.76,0,0,1-.75.76Z"/><path d="M21.22,16.31h-3.5a3.92,3.92,0,1,0,0,1.5h3.5a.75.75,0,0,0,.75-.75A.76.76,0,0,0,21.22,16.31Z"/><path d="M8.36,17.83h0l-5.58,0A.75.75,0,0,1,2,17.06a.76.76,0,0,1,.75-.75h0l5.58,0a.73.73,0,0,1,.74.75A.75.75,0,0,1,8.36,17.83Z"/></g></symbol>

<symbol id="abstract-26" viewBox="0 0 24 24"><g><g><path style="opacity:0.3" d="M21.25,18.52,13,21.8a2.72,2.72,0,0,1-2.06,0L2.75,18.52a1.2,1.2,0,0,1,0-2.23L4,15.78l6.19,2.48a4.83,4.83,0,0,0,3.56,0L20,15.78l1.28.51A1.2,1.2,0,0,1,21.25,18.52ZM13,16.4l8.22-3.29a1.2,1.2,0,0,0,0-2.22L13,7.6A2.82,2.82,0,0,0,11,7.6L2.75,10.89a1.2,1.2,0,0,0,0,2.22L11,16.4A2.82,2.82,0,0,0,13,16.4Z"/><path d="M11,11,2.75,7.71a1.2,1.2,0,0,1,0-2.23L11,2.2A2.72,2.72,0,0,1,13,2.2l8.22,3.28a1.2,1.2,0,0,1,0,2.23L13,11A2.82,2.82,0,0,1,11,11Z"/></g></g></symbol>

<symbol id="filter" viewBox="0 0 24 24"><g><path d="M5.77,10,10.9,2H5.63A2.21,2.21,0,0,0,3.42,4.19V6.68a2.19,2.19,0,0,0,.63,1.55Z"/><path style="opacity:0.3" d="M18.37,2H12.69L6.85,11.07l1,1a3.85,3.85,0,0,1,1.11,2.7V20a2,2,0,0,0,3.22,1.67l1.37-1a1.91,1.91,0,0,0,.81-1.56V14.9A3.86,3.86,0,0,1,15.61,12l4.23-3.77a2.18,2.18,0,0,0,.74-1.66V4.19A2.21,2.21,0,0,0,18.37,2Z"/></g></symbol>

<symbol id="trush" viewBox="0 0 24 24"><g><g><g style="opacity:0.3"><path d="M15.87,21.91,8.32,22a2.56,2.56,0,0,1-2.59-2.38L5,9.18A1.1,1.1,0,0,1,6.12,8H17.88A1.1,1.1,0,0,1,19,9.17l-.59,10.32A2.56,2.56,0,0,1,15.87,21.91Z"/></g><path d="M14.23,13.6H9.77a.75.75,0,0,1,0-1.5h4.46a.75.75,0,0,1,0,1.5Z"/><path d="M13.45,17.3h-2.9a.75.75,0,0,1,0-1.5h2.9a.75.75,0,0,1,0,1.5Z"/><path d="M20.25,7.16h-.11a59.72,59.72,0,0,0-16.27,0,.75.75,0,0,1-.24-1.48,60,60,0,0,1,16.73,0,.75.75,0,0,1-.11,1.49Z"/><path d="M16,5.84H8l.45-2.32A1.87,1.87,0,0,1,10.25,2h3.53a1.88,1.88,0,0,1,1.84,1.53Z"/></g></g></symbol>

<symbol id="eraser" viewBox="0 0 24 24"><g><g><path style="opacity:0.3" d="M8.38,22H21a1,1,0,0,0,1-1h0a1,1,0,0,0-1-1H10Z"/><path d="M15.62,15.62,9.85,21.39a2.09,2.09,0,0,1-2.95,0L2.61,17.1a2.09,2.09,0,0,1,0-3L8.38,8.38Z"/><path class="cls-1" d="M8.38,8.38l5.77-5.77a2.09,2.09,0,0,1,3,0L21.39,6.9a2.09,2.09,0,0,1,0,2.95l-5.77,5.77Z"/></g></g></symbol>

<symbol id="plus" viewBox="0 0 24 24"><g><g><path d="M12,19a1,1,0,0,1-1-1L11,6a1,1,0,0,1,1-1h0a1,1,0,0,1,1,1l0,12a1,1,0,0,1-1,1Z"/><path d="M6,13a1,1,0,0,1,0-2l12,0h0a1,1,0,0,1,0,2L6,13Z"/></g></g></symbol>

<symbol id="rocket" viewBox="0 0 24 24"><g><g><g style="opacity:0.3"><path d="M20,2l-3.54.64A10.32,10.32,0,0,0,11.74,5.4c-2.07,2.16-4.38,6.79-5.3,8.72a1.35,1.35,0,0,0,.29,1.54l2.06,2a1.32,1.32,0,0,0,1.54.22,43.49,43.49,0,0,0,8.35-5.51,9.66,9.66,0,0,0,2.62-5L21.94,4A1.7,1.7,0,0,0,20,2ZM17.64,9.19a2,2,0,1,1-.06-2.81A2,2,0,0,1,17.64,9.19Z"/></g><path d="M9.36,8.66,6.58,13.87,2,13.76S5.83,7.91,9.36,8.66Zm6.72,5.74-5,3.06L11.39,22S17,17.88,16.08,14.4Zm.1-8.57a2,2,0,1,0,2,2A2,2,0,0,0,16.18,5.83Z"/></g></g></symbol>

<symbol id="archive-2" viewBox="0 0 24 24"><g><g><path style="opacity:0.3" d="M4.51,10h15a0,0,0,0,1,0,0v9.73a2.27,2.27,0,0,1-2.27,2.27H6.78a2.27,2.27,0,0,1-2.27-2.27V10A0,0,0,0,1,4.51,10Z"/><rect x="2" y="1.95" width="20" height="8.13" rx="2.57"/><path d="M14.21,14.83H10.62a.75.75,0,0,1,0-1.5h3.59a.75.75,0,0,1,0,1.5Z"/></g></g></symbol>

<symbol id="pencxil" viewBox="0 0 24 24"><g><g><path style="opacity:0.3" d="M21.4,8.35l-2.15,2.16L13.49,4.75,15.65,2.6a2,2,0,0,1,2.88,0L21.4,5.47A2,2,0,0,1,21.4,8.35ZM3.69,21.93l6.2-2.06L4.13,14.11l-2.06,6.2A1.28,1.28,0,0,0,3.69,21.93Z"/><path d="M5.57,21.3l-1.88.63a1.28,1.28,0,0,1-1.62-1.62l.63-1.88ZM4.13,14.11l5.76,5.76,9.36-9.36L13.49,4.75Z"/></g></g></symbol>

<symbol id="arrow-right" viewBox="0 0 24 24"><g><g><path d="M12,18.94a1,1,0,0,1-.71-1.71L16.52,12,11.29,6.77a1,1,0,0,1,0-1.41,1,1,0,0,1,1.42,0l5.93,5.93a1,1,0,0,1,.3.71,1,1,0,0,1-.3.71l-5.93,5.93A1,1,0,0,1,12,18.94Z"/><path style="opacity:0.3" d="M17.94,13H6.06a1,1,0,1,1,0-2H17.94a1,1,0,0,1,0,2Z"/></g></g></symbol>

<symbol id="file-up" xmlns="http://www.w3.org/2000/svg" viewBox="0 0 24 24"><g><g><path style="opacity:0.3" d="M22,12H17.27a4.91,4.91,0,0,1-4.78-5.13V2H7.58A5.66,5.66,0,0,0,2,7.71v8.58A5.66,5.66,0,0,0,7.58,22H16.4A5.67,5.67,0,0,0,22,16.29L22,12Z"/><path d="M22,10.43H17.27A3.38,3.38,0,0,1,14,6.82V2Zm-12.67.38-.13-.08-.08,0a.66.66,0,0,0-.27-.06H8.77a.78.78,0,0,0-.21,0l-.1.06-.1,0L5.3,13.27a.76.76,0,0,0-.12,1.07.72.72,0,0,0,.58.29.75.75,0,0,0,.47-.17L8.07,13v5.19a.75.75,0,1,0,1.5,0V13.05l1.6,1.39a.74.74,0,0,0,1.06-.08.78.78,0,0,0-.08-1.08Z"/></g></g></symbol>

</defs>
</svg>